<?xml version="1.0" encoding="UTF-8" standalone="no"?>
<svg width="169px" height="26px" viewBox="0 0 169 26" version="1.1" xmlns="http://www.w3.org/2000/svg" xmlns:xlink="http://www.w3.org/1999/xlink" xmlns:sketch="http://www.bohemiancoding.com/sketch/ns">
    <title>Slice 1</title>
    <description>Created with Sketch (http://www.bohemiancoding.com/sketch)</description>
    <defs></defs>
    <g id="Page 1" stroke="none" stroke-width="1" fill="none" fill-rule="evenodd" stroke-linecap="square">
        <g id="Group" transform="translate(19.000000, 0.000000)" stroke="#979797">
            <path d="M12.227922,0.772078015 L0.914213394,12.0857864" id="Line"></path>
            <path d="M11.8137083,12.5 L0.5,23.8137087" id="Line" transform="translate(6.156854, 18.156854) scale(-1, 1) translate(-6.156854, -18.156854) "></path>
        </g>
        <g id="Group" transform="translate(145.272078, 12.000000) scale(-1, 1) translate(-145.272078, -12.000000) translate(138.772078, 0.000000)" stroke="#979797">
            <path d="M12.227922,0.772078015 L0.914213394,12.0857864" id="Line"></path>
            <path d="M11.8137083,12.5 L0.5,23.8137087" id="Line" transform="translate(6.156854, 18.156854) scale(-1, 1) translate(-6.156854, -18.156854) "></path>
        </g>
        <path d="M97.2923752,2.0937499 L84.564453,14.8216719" id="Line" stroke="#979797" transform="translate(90.928414, 8.457711) rotate(-270.000000) translate(-90.928414, -8.457711) "></path>
        <path d="M84.5644528,2.09374972 L71.8365311,14.8216721" id="Line" stroke="#979797" transform="translate(78.200492, 8.457711) scale(-1, 1) rotate(-270.000000) translate(-78.200492, -8.457711) "></path>
    </g>
</svg>